<svg width="1440" height="80" viewBox="0 0 1440 80" fill="none" xmlns="http://www.w3.org/2000/svg">
<g style="mix-blend-mode:plus-darker">
<rect width="1440" height="80" fill="#766C6B" fill-opacity="0.36"/>
<path d="M1367.88 43.5604C1368.97 43.8046 1369.98 44.2148 1370.88 44.7665L1380.7 42.1394C1381.21 42.0027 1381.48 41.5583 1381.31 41.153L1377.64 32.3048C1377.47 31.8946 1376.92 31.6749 1376.41 31.8116L1372.7 32.8078L1374.71 37.6616L1371.02 38.6431L1369.01 33.7893L1365.27 34.7903C1364.76 34.9271 1364.49 35.3714 1364.66 35.7767L1367.88 43.5604ZM1384.95 45.9385L1384.33 44.454C1384.16 44.0438 1383.61 43.8241 1383.1 43.9608L1370.13 47.4376C1369.09 46.3633 1367.48 45.6602 1365.66 45.6309L1359.62 31.0694C1359.36 30.4297 1358.62 30 1357.78 30H1350.97C1350.44 30 1350 30.3516 1350 30.7813V32.3439C1350 32.7736 1350.44 33.1252 1350.97 33.1252H1356.37L1361.98 46.6368C1360.39 47.6329 1359.44 49.2541 1359.79 51.056C1360.16 52.9799 1362.09 54.5865 1364.49 54.9234C1368.14 55.4459 1371.31 53.2241 1371.38 50.4017L1384.34 46.9249C1384.84 46.7882 1385.12 46.3487 1384.95 45.9385ZM1365.55 52.6577C1363.94 52.6577 1362.64 51.6078 1362.64 50.3138C1362.64 49.0197 1363.94 47.9699 1365.55 47.9699C1367.17 47.9699 1368.47 49.0197 1368.47 50.3138C1368.47 51.6078 1367.17 52.6577 1365.55 52.6577Z" fill="#FFD66D"/>
<path d="M1312.5 42.5C1316.45 42.5 1319.64 39.7021 1319.64 36.25C1319.64 32.7979 1316.45 30 1312.5 30C1308.55 30 1305.36 32.7979 1305.36 36.25C1305.36 39.7021 1308.55 42.5 1312.5 42.5ZM1317.5 44.0625H1316.57C1315.33 44.5605 1313.95 44.8438 1312.5 44.8438C1311.05 44.8438 1309.68 44.5605 1308.43 44.0625H1307.5C1303.36 44.0625 1300 47.002 1300 50.625V52.6562C1300 53.9502 1301.2 55 1302.68 55H1322.32C1323.8 55 1325 53.9502 1325 52.6562V50.625C1325 47.002 1321.64 44.0625 1317.5 44.0625Z" fill="#FFD66D"/>
<rect x="89.5" y="14.5" width="321" height="51" fill="#D9D9D9" fill-opacity="0.11" stroke="#FFD66D" stroke-linejoin="round"/>
<path d="M74.6582 51.6162L69.79 46.748C69.5703 46.5283 69.2725 46.4062 68.96 46.4062H68.1641C69.5117 44.6826 70.3125 42.5146 70.3125 40.1562C70.3125 34.5459 65.7666 30 60.1562 30C54.5459 30 50 34.5459 50 40.1562C50 45.7666 54.5459 50.3125 60.1562 50.3125C62.5146 50.3125 64.6826 49.5117 66.4062 48.1641V48.96C66.4062 49.2725 66.5283 49.5703 66.748 49.79L71.6162 54.6582C72.0752 55.1172 72.8174 55.1172 73.2715 54.6582L74.6533 53.2764C75.1123 52.8174 75.1123 52.0752 74.6582 51.6162ZM60.1562 46.4062C56.7041 46.4062 53.9062 43.6133 53.9062 40.1562C53.9062 36.7041 56.6992 33.9062 60.1562 33.9062C63.6084 33.9062 66.4062 36.6992 66.4062 40.1562C66.4062 43.6084 63.6133 46.4062 60.1562 46.4062Z" fill="#FFD66D"/>
</g>
</svg>
