<svg width="181" height="25" viewBox="0 0 181 25" fill="none" xmlns="http://www.w3.org/2000/svg">
<path d="M14.017 14.0625L14.7949 9.53809H9.93144V6.60205C9.93144 5.36426 10.6108 4.15771 12.789 4.15771H15V0.305664C15 0.305664 12.9936 0 11.0752 0C7.07005 0 4.45208 2.16699 4.45208 6.08984V9.53809H0V14.0625H4.45208V25H9.93144V14.0625H14.017Z" fill="#FFD66D"/>
<path d="M63.5028 6.09032C59.9557 6.09032 57.0945 8.95208 57.0945 12.5C57.0945 16.0479 59.9557 18.9097 63.5028 18.9097C67.0499 18.9097 69.911 16.0479 69.911 12.5C69.911 8.95208 67.0499 6.09032 63.5028 6.09032ZM63.5028 16.6671C61.2105 16.6671 59.3366 14.7983 59.3366 12.5C59.3366 10.2017 61.205 8.33287 63.5028 8.33287C65.8006 8.33287 67.669 10.2017 67.669 12.5C67.669 14.7983 65.795 16.6671 63.5028 16.6671ZM71.6679 5.82813C71.6679 6.65932 70.9986 7.32316 70.1732 7.32316C69.3422 7.32316 68.6785 6.65374 68.6785 5.82813C68.6785 5.00251 69.3477 4.33309 70.1732 4.33309C70.9986 4.33309 71.6679 5.00251 71.6679 5.82813ZM75.9122 7.34548C75.8173 5.3428 75.36 3.56884 73.8932 2.10727C72.432 0.64571 70.6584 0.188274 68.6562 0.0878612C66.5926 -0.0292871 60.4074 -0.0292871 58.3438 0.0878612C56.3472 0.182696 54.5736 0.640132 53.1068 2.1017C51.64 3.56326 51.1882 5.33722 51.0878 7.3399C50.9707 9.40394 50.9707 15.5905 51.0878 17.6545C51.1827 19.6572 51.64 21.4312 53.1068 22.8927C54.5736 24.3543 56.3416 24.8117 58.3438 24.9121C60.4074 25.0293 66.5926 25.0293 68.6562 24.9121C70.6584 24.8173 72.432 24.3599 73.8932 22.8927C75.3544 21.4312 75.8118 19.6572 75.9122 17.6545C76.0293 15.5905 76.0293 9.40952 75.9122 7.34548ZM73.2462 19.8692C72.8112 20.9626 71.969 21.8049 70.8703 22.2456C69.225 22.8983 65.321 22.7477 63.5028 22.7477C61.6846 22.7477 57.775 22.8927 56.1352 22.2456C55.0421 21.8105 54.1999 20.9681 53.7593 19.8692C53.1068 18.2235 53.2574 14.3186 53.2574 12.5C53.2574 10.6814 53.1124 6.77089 53.7593 5.13082C54.1944 4.03743 55.0365 3.19508 56.1352 2.75438C57.7805 2.1017 61.6846 2.25232 63.5028 2.25232C65.321 2.25232 69.2306 2.10727 70.8703 2.75438C71.9635 3.1895 72.8056 4.03185 73.2462 5.13082C73.8988 6.77647 73.7482 10.6814 73.7482 12.5C73.7482 14.3186 73.8988 18.2291 73.2462 19.8692Z" fill="#FFD66D"/>
<path d="M123.43 6.23045C123.446 6.50387 123.446 6.77735 123.446 7.05078C123.446 15.3906 118.291 25 108.868 25C105.965 25 103.268 23.9648 101 22.168C101.412 22.2266 101.809 22.2461 102.237 22.2461C104.633 22.2461 106.838 21.25 108.598 19.5508C106.346 19.4922 104.458 17.6758 103.808 15.1758C104.125 15.2343 104.442 15.2734 104.775 15.2734C105.235 15.2734 105.695 15.1953 106.124 15.0586C103.776 14.4726 102.015 11.9336 102.015 8.86718V8.78908C102.697 9.25783 103.49 9.5508 104.331 9.58982C102.951 8.45698 102.047 6.52341 102.047 4.33589C102.047 3.16404 102.301 2.08982 102.745 1.15231C105.267 4.98044 109.058 7.48039 113.31 7.75388C113.23 7.28513 113.183 6.79689 113.183 6.3086C113.183 2.832 115.467 0 118.306 0C119.782 0 121.114 0.761717 122.05 1.99219C123.208 1.71876 124.318 1.19139 125.302 0.468753C124.921 1.93363 124.112 3.1641 123.049 3.9453C124.081 3.80864 125.08 3.457 126 2.96877C125.302 4.21872 124.43 5.33196 123.43 6.23045Z" fill="#FFD66D"/>
<path d="M180.373 3.91165C180.028 2.37194 179.012 1.15931 177.721 0.747786C175.381 0 166 0 166 0C166 0 156.619 0 154.279 0.747786C152.988 1.15937 151.972 2.37194 151.627 3.91165C151 6.70247 151 12.5253 151 12.5253C151 12.5253 151 18.348 151.627 21.1389C151.972 22.6786 152.988 23.8407 154.279 24.2522C156.619 25 166 25 166 25C166 25 175.381 25 177.721 24.2522C179.012 23.8407 180.028 22.6786 180.373 21.1389C181 18.348 181 12.5253 181 12.5253C181 12.5253 181 6.70247 180.373 3.91165ZM162.932 17.8119V7.23861L170.773 12.5254L162.932 17.8119Z" fill="#FFD66D"/>
</svg>
