<svg width="35" height="25" viewBox="0 0 35 25" fill="none" xmlns="http://www.w3.org/2000/svg">
<path d="M17.8761 13.5604C18.9698 13.8046 19.9845 14.2148 20.8838 14.7665L30.6968 12.1394C31.2072 12.0027 31.4806 11.5583 31.3105 11.153L27.6405 2.30483C27.4703 1.89465 26.9174 1.67491 26.4131 1.81164L22.7005 2.80779L24.7117 7.66161L21.0235 8.64312L19.0123 3.7893L15.2694 4.79034C14.759 4.92707 14.4856 5.37143 14.6557 5.77673L17.8761 13.5604ZM34.9501 15.9385L34.3303 14.454C34.1602 14.0438 33.6072 13.8241 33.1029 13.9608L20.1303 17.4376C19.0852 16.3633 17.4811 15.6602 15.6643 15.6309L9.62464 1.0694C9.35729 0.429714 8.616 0 7.77749 0H0.972186C0.437484 0 0 0.351584 0 0.781299V2.3439C0 2.77361 0.437484 3.1252 0.972186 3.1252H6.37389L11.9761 16.6368C10.3902 17.6329 9.44235 19.2541 9.7887 21.056C10.1593 22.9799 12.0916 24.5865 14.4856 24.9234C18.1434 25.4459 21.3091 23.2241 21.3759 20.4017L34.3364 16.9249C34.8407 16.7882 35.1202 16.3487 34.9501 15.9385ZM15.555 22.6577C13.9448 22.6577 12.6384 21.6078 12.6384 20.3138C12.6384 19.0197 13.9448 17.9699 15.555 17.9699C17.1652 17.9699 18.4715 19.0197 18.4715 20.3138C18.4715 21.6078 17.1652 22.6577 15.555 22.6577Z" fill="#FFD66D"/>
</svg>
