<svg width="35" height="25" viewBox="0 0 35 25" fill="none" xmlns="http://www.w3.org/2000/svg">
<path d="M5.6875 3.57143H3.0625C2.33516 3.57143 1.75 4.16853 1.75 4.91071V10.7143H0.4375C0.196875 10.7143 0 10.9152 0 11.1607V13.8393C0 14.0848 0.196875 14.2857 0.4375 14.2857H1.75V20.0893C1.75 20.8315 2.33516 21.4286 3.0625 21.4286H5.6875C6.41484 21.4286 7 20.8315 7 20.0893V4.91071C7 4.16853 6.41484 3.57143 5.6875 3.57143ZM34.5625 10.7143H33.25V4.91071C33.25 4.16853 32.6648 3.57143 31.9375 3.57143H29.3125C28.5852 3.57143 28 4.16853 28 4.91071V20.0893C28 20.8315 28.5852 21.4286 29.3125 21.4286H31.9375C32.6648 21.4286 33.25 20.8315 33.25 20.0893V14.2857H34.5625C34.8031 14.2857 35 14.0848 35 13.8393V11.1607C35 10.9152 34.8031 10.7143 34.5625 10.7143ZM24.9375 0H22.3125C21.5852 0 21 0.597098 21 1.33929V10.7143H14V1.33929C14 0.597098 13.4148 0 12.6875 0H10.0625C9.33516 0 8.75 0.597098 8.75 1.33929V23.6607C8.75 24.4029 9.33516 25 10.0625 25H12.6875C13.4148 25 14 24.4029 14 23.6607V14.2857H21V23.6607C21 24.4029 21.5852 25 22.3125 25H24.9375C25.6648 25 26.25 24.4029 26.25 23.6607V1.33929C26.25 0.597098 25.6648 0 24.9375 0Z" fill="#FFD66D"/>
</svg>
